<mxfile host="app.diagrams.net" agent="Mozilla/5.0 (Macintosh; Intel Mac OS X 10_15_7) AppleWebKit/537.36 (KHTML, like Gecko) Chrome/130.0.0.0 Safari/537.36" version="24.8.6">
  <diagram name="Page-1" id="0Awox8vpgQFOPTNNr-SR">
    <mxGraphModel dx="713" dy="773" grid="1" gridSize="10" guides="1" tooltips="1" connect="1" arrows="1" fold="1" page="1" pageScale="1" pageWidth="850" pageHeight="1100" math="0" shadow="0">
      <root>
        <mxCell id="0" />
        <mxCell id="1" parent="0" />
        <mxCell id="Erd0pCjpf10aL4VD4ASl-1" value="Player&lt;div&gt;&lt;br&gt;&lt;/div&gt;&lt;div&gt;&lt;br&gt;&lt;/div&gt;&lt;div&gt;&lt;br&gt;&lt;/div&gt;&lt;div&gt;&lt;br&gt;&lt;/div&gt;" style="shape=umlLifeline;perimeter=lifelinePerimeter;whiteSpace=wrap;html=1;container=1;dropTarget=0;collapsible=0;recursiveResize=0;outlineConnect=0;portConstraint=eastwest;newEdgeStyle={&quot;curved&quot;:0,&quot;rounded&quot;:0};participant=umlActor;" parent="1" vertex="1">
          <mxGeometry x="170" y="120" width="20" height="880" as="geometry" />
        </mxCell>
        <mxCell id="Erd0pCjpf10aL4VD4ASl-2" value=":Game" style="shape=umlLifeline;perimeter=lifelinePerimeter;whiteSpace=wrap;html=1;container=1;dropTarget=0;collapsible=0;recursiveResize=0;outlineConnect=0;portConstraint=eastwest;newEdgeStyle={&quot;curved&quot;:0,&quot;rounded&quot;:0};" parent="1" vertex="1">
          <mxGeometry x="330" y="120" width="100" height="880" as="geometry" />
        </mxCell>
        <mxCell id="Erd0pCjpf10aL4VD4ASl-3" value="&lt;br&gt;&lt;div&gt;enterHall&lt;/div&gt;" style="html=1;verticalAlign=bottom;endArrow=block;curved=0;rounded=0;" parent="1" edge="1">
          <mxGeometry width="80" relative="1" as="geometry">
            <mxPoint x="182.42" y="220" as="sourcePoint" />
            <mxPoint x="377.42" y="220" as="targetPoint" />
          </mxGeometry>
        </mxCell>
        <mxCell id="Erd0pCjpf10aL4VD4ASl-4" value="&lt;div&gt;&lt;span style=&quot;font-size: 8px;&quot;&gt;loop&lt;/span&gt;&lt;/div&gt;&lt;span style=&quot;font-size: 8px;&quot;&gt;isPlayerAlive()&lt;/span&gt;&lt;div&gt;&lt;span style=&quot;font-size: 8px;&quot;&gt;and&lt;/span&gt;&lt;/div&gt;&lt;div&gt;&lt;span style=&quot;font-size: 8px;&quot;&gt;isMonsterAlive()&lt;/span&gt;&lt;/div&gt;" style="shape=umlFrame;whiteSpace=wrap;html=1;pointerEvents=0;width=70;height=60;" parent="1" vertex="1">
          <mxGeometry x="30" y="290" width="500" height="220" as="geometry" />
        </mxCell>
        <mxCell id="Erd0pCjpf10aL4VD4ASl-5" value="setMode(GameMode.ROGUE)" style="html=1;verticalAlign=bottom;endArrow=open;dashed=1;endSize=8;curved=0;rounded=0;" parent="1" edge="1">
          <mxGeometry x="-0.0015" relative="1" as="geometry">
            <mxPoint x="372.42" y="270" as="sourcePoint" />
            <mxPoint x="177.575172413793" y="270" as="targetPoint" />
            <Array as="points">
              <mxPoint x="287.42" y="270" />
            </Array>
            <mxPoint as="offset" />
          </mxGeometry>
        </mxCell>
        <mxCell id="Erd0pCjpf10aL4VD4ASl-16" value="generateMonster()" style="html=1;verticalAlign=bottom;endArrow=open;dashed=1;endSize=8;curved=0;rounded=0;" parent="1" source="Erd0pCjpf10aL4VD4ASl-2" target="Erd0pCjpf10aL4VD4ASl-2" edge="1">
          <mxGeometry x="0.0527" y="50" relative="1" as="geometry">
            <mxPoint x="574.84" y="240" as="sourcePoint" />
            <mxPoint x="379.995172413793" y="240" as="targetPoint" />
            <Array as="points">
              <mxPoint x="460" y="240" />
              <mxPoint x="460" y="270" />
              <mxPoint x="440" y="270" />
              <mxPoint x="400" y="270" />
            </Array>
            <mxPoint as="offset" />
          </mxGeometry>
        </mxCell>
        <mxCell id="Erd0pCjpf10aL4VD4ASl-26" value="&lt;span style=&quot;font-size: 8px;&quot;&gt;if&amp;nbsp;&lt;/span&gt;&lt;div&gt;&lt;span style=&quot;font-size: 8px;&quot;&gt;[Monster = Wizard]&lt;/span&gt;&lt;/div&gt;" style="shape=umlFrame;whiteSpace=wrap;html=1;pointerEvents=0;width=50;height=50;" parent="1" vertex="1">
          <mxGeometry x="120" y="330" width="320" height="120" as="geometry" />
        </mxCell>
        <mxCell id="Erd0pCjpf10aL4VD4ASl-27" value="moveAround()" style="html=1;verticalAlign=bottom;endArrow=block;curved=0;rounded=0;" parent="1" edge="1">
          <mxGeometry width="80" relative="1" as="geometry">
            <mxPoint x="183.75" y="360" as="sourcePoint" />
            <mxPoint x="378.75" y="360" as="targetPoint" />
          </mxGeometry>
        </mxCell>
        <mxCell id="Erd0pCjpf10aL4VD4ASl-28" value="monsterAction(monsterType)" style="html=1;verticalAlign=bottom;endArrow=open;dashed=1;endSize=8;curved=0;rounded=0;" parent="1" edge="1">
          <mxGeometry x="-0.0015" relative="1" as="geometry">
            <mxPoint x="376.09000000000003" y="390" as="sourcePoint" />
            <mxPoint x="181.245172413793" y="390" as="targetPoint" />
            <Array as="points">
              <mxPoint x="291.09000000000003" y="390" />
            </Array>
            <mxPoint as="offset" />
          </mxGeometry>
        </mxCell>
        <mxCell id="Erd0pCjpf10aL4VD4ASl-29" value="playerAction(input)" style="html=1;verticalAlign=bottom;endArrow=block;curved=0;rounded=0;" parent="1" edge="1">
          <mxGeometry width="80" relative="1" as="geometry">
            <mxPoint x="183.75" y="420" as="sourcePoint" />
            <mxPoint x="378.75" y="420" as="targetPoint" />
          </mxGeometry>
        </mxCell>
        <mxCell id="Erd0pCjpf10aL4VD4ASl-34" value="&lt;span style=&quot;font-size: 8px;&quot;&gt;if&amp;nbsp;&lt;/span&gt;&lt;div&gt;&lt;span style=&quot;font-size: 8px;&quot;&gt;[isPlayerAlive()]&lt;/span&gt;&lt;/div&gt;" style="shape=umlFrame;whiteSpace=wrap;html=1;pointerEvents=0;width=60;height=50;" parent="1" vertex="1">
          <mxGeometry x="120" y="540" width="320" height="70" as="geometry" />
        </mxCell>
        <mxCell id="Erd0pCjpf10aL4VD4ASl-35" value="playGame() [other SSD]" style="html=1;verticalAlign=bottom;endArrow=block;curved=0;rounded=0;" parent="1" edge="1">
          <mxGeometry width="80" relative="1" as="geometry">
            <mxPoint x="182.5" y="570" as="sourcePoint" />
            <mxPoint x="377.5" y="570" as="targetPoint" />
          </mxGeometry>
        </mxCell>
        <mxCell id="Erd0pCjpf10aL4VD4ASl-37" value="&lt;span style=&quot;font-size: 8px;&quot;&gt;if&amp;nbsp;&lt;/span&gt;&lt;div&gt;&lt;span style=&quot;font-size: 8px;&quot;&gt;[isMonsterAlive()]&lt;/span&gt;&lt;/div&gt;" style="shape=umlFrame;whiteSpace=wrap;html=1;pointerEvents=0;width=60;height=50;" parent="1" vertex="1">
          <mxGeometry x="120" y="640" width="320" height="70" as="geometry" />
        </mxCell>
        <mxCell id="Erd0pCjpf10aL4VD4ASl-39" value="endGame()" style="html=1;verticalAlign=bottom;endArrow=open;dashed=1;endSize=8;curved=0;rounded=0;" parent="1" edge="1">
          <mxGeometry x="-0.0015" relative="1" as="geometry">
            <mxPoint x="377.42" y="674.77" as="sourcePoint" />
            <mxPoint x="182.575172413793" y="674.77" as="targetPoint" />
            <Array as="points">
              <mxPoint x="292.42" y="674.77" />
            </Array>
            <mxPoint as="offset" />
          </mxGeometry>
        </mxCell>
      </root>
    </mxGraphModel>
  </diagram>
</mxfile>
